<svg height="300px" width="300px" fill="#000000" xmlns="http://www.w3.org/2000/svg" xmlns:xlink="http://www.w3.org/1999/xlink" version="1.1" x="0px" y="0px" viewBox="0 0 32 32" enable-background="new 0 0 32 32" xml:space="preserve"><g display="none"><rect x="-90" y="-93.339" display="inline" fill="#000000" width="404.667" height="211.333"/></g><g display="none"><g display="inline"><path d="M9.109,26.5h13.781c0.722,0,1.312-0.591,1.312-1.312V6.812c0-0.722-0.591-1.312-1.312-1.312H9.109    c-0.722,0-1.312,0.591-1.312,1.312v18.375C7.797,25.909,8.388,26.5,9.109,26.5z M8.797,6.812C8.797,6.643,8.94,6.5,9.109,6.5    h13.781c0.169,0,0.312,0.143,0.312,0.312v18.375c0,0.169-0.143,0.312-0.312,0.312H9.109c-0.169,0-0.312-0.143-0.312-0.312V6.812z"/><rect x="11.083" y="22.09" width="9.834" height="1"/><rect x="11.083" y="19.109" width="9.834" height="1"/><path d="M13.161,14.175c0.256,0.145,0.556,0.216,0.899,0.216c0.271,0,0.538-0.051,0.802-0.153s0.466-0.221,0.604-0.355v-1.31    h-1.431v0.554h0.76v0.417c-0.1,0.078-0.22,0.145-0.359,0.198c-0.141,0.055-0.279,0.082-0.419,0.082    c-0.281,0-0.508-0.098-0.682-0.292c-0.174-0.195-0.26-0.488-0.26-0.879c0-0.361,0.085-0.635,0.257-0.818    c0.171-0.184,0.401-0.276,0.691-0.276c0.191,0,0.352,0.047,0.479,0.141s0.215,0.221,0.261,0.383l0.659-0.124    c-0.065-0.302-0.213-0.538-0.442-0.71c-0.229-0.171-0.549-0.257-0.957-0.257c-0.313,0-0.576,0.055-0.787,0.164    c-0.276,0.143-0.486,0.347-0.63,0.612c-0.144,0.267-0.216,0.57-0.216,0.913c0,0.315,0.064,0.607,0.193,0.876    C12.713,13.825,12.905,14.031,13.161,14.175z"/><rect x="16.06" y="11.048" width="0.663" height="3.288"/><polygon points="18.024,12.938 19.396,12.938 19.396,12.382 18.024,12.382 18.024,11.603 19.614,11.603 19.614,11.048     17.36,11.048 17.36,14.336 18.024,14.336   "/><path d="M16,32c8.837,0,16-7.163,16-16S24.837,0,16,0S0,7.163,0,16S7.163,32,16,32z M16,1c8.271,0,15,6.729,15,15    c0,8.271-6.729,15-15,15C7.729,31,1,24.271,1,16C1,7.729,7.729,1,16,1z"/></g></g><g display="none"><g display="inline"><path d="M9.109,26.5h13.781c0.722,0,1.312-0.591,1.312-1.312V6.812c0-0.722-0.591-1.312-1.312-1.312H9.109    c-0.722,0-1.312,0.591-1.312,1.312v18.375C7.797,25.909,8.388,26.5,9.109,26.5z M9.797,7.5h12.406v17H9.797V7.5z"/><rect x="11.083" y="18.609" width="9.834" height="2"/><path d="M13.161,14.175c0.256,0.145,0.556,0.216,0.899,0.216c0.271,0,0.538-0.051,0.802-0.153s0.466-0.221,0.604-0.355v-1.31    h-1.431v0.554h0.76v0.417c-0.1,0.078-0.22,0.145-0.359,0.198c-0.141,0.055-0.279,0.082-0.419,0.082    c-0.281,0-0.508-0.098-0.682-0.292c-0.174-0.195-0.26-0.488-0.26-0.879c0-0.361,0.085-0.635,0.257-0.818    c0.171-0.184,0.401-0.276,0.691-0.276c0.191,0,0.352,0.047,0.479,0.141s0.215,0.221,0.261,0.383l0.659-0.124    c-0.065-0.302-0.213-0.538-0.442-0.71c-0.229-0.171-0.549-0.257-0.957-0.257c-0.313,0-0.576,0.055-0.787,0.164    c-0.276,0.143-0.486,0.347-0.63,0.612c-0.144,0.267-0.216,0.57-0.216,0.913c0,0.315,0.064,0.607,0.193,0.876    C12.713,13.825,12.905,14.031,13.161,14.175z"/><rect x="16.06" y="11.048" width="0.663" height="3.288"/><polygon points="18.024,12.938 19.396,12.938 19.396,12.382 18.024,12.382 18.024,11.603 19.614,11.603 19.614,11.048     17.36,11.048 17.36,14.336 18.024,14.336   "/><rect x="11.083" y="21.321" width="9.834" height="2"/><path d="M16,32c8.837,0,16-7.163,16-16S24.837,0,16,0S0,7.163,0,16S7.163,32,16,32z M16,2c7.72,0,14,6.28,14,14s-6.28,14-14,14    S2,23.72,2,16S8.28,2,16,2z"/></g></g><g display="none"><g display="inline"><path d="M9.109,25.5h13.781c0.169,0,0.312-0.143,0.312-0.312V6.812c0-0.169-0.143-0.312-0.312-0.312H9.109    c-0.169,0-0.312,0.143-0.312,0.312v18.375C8.797,25.357,8.94,25.5,9.109,25.5z M17.36,11.048h2.254v0.556h-1.59v0.778h1.372v0.557    h-1.372v1.397H17.36V11.048z M16.06,11.048h0.663v3.288H16.06V11.048z M12.607,11.767c0.144-0.266,0.354-0.47,0.63-0.612    c0.211-0.109,0.474-0.164,0.787-0.164c0.408,0,0.728,0.086,0.957,0.257c0.229,0.172,0.377,0.408,0.442,0.71l-0.659,0.124    c-0.046-0.162-0.133-0.289-0.261-0.383s-0.288-0.141-0.479-0.141c-0.29,0-0.521,0.093-0.691,0.276    c-0.172,0.184-0.257,0.457-0.257,0.818c0,0.391,0.086,0.684,0.26,0.879c0.174,0.194,0.4,0.292,0.682,0.292    c0.14,0,0.278-0.027,0.419-0.082c0.14-0.054,0.26-0.12,0.359-0.198v-0.417h-0.76v-0.554h1.431v1.31    c-0.139,0.135-0.341,0.253-0.604,0.355s-0.531,0.153-0.802,0.153c-0.344,0-0.644-0.071-0.899-0.216s-0.448-0.351-0.576-0.619    c-0.129-0.269-0.193-0.561-0.193-0.876C12.392,12.338,12.464,12.034,12.607,11.767z M11.083,19.109h9.834v1h-9.834V19.109z     M11.083,22.09h9.834v1h-9.834V22.09z"/><path d="M16,32c8.837,0,16-7.163,16-16S24.837,0,16,0S0,7.163,0,16S7.163,32,16,32z M7.797,6.812c0-0.722,0.591-1.312,1.312-1.312    h13.781c0.722,0,1.312,0.591,1.312,1.312v18.375c0,0.722-0.591,1.312-1.312,1.312H9.109c-0.722,0-1.312-0.591-1.312-1.312V6.812z"/></g></g><g><g><path d="M9.109,26.5h13.781c0.722,0,1.312-0.591,1.312-1.312V6.812c0-0.722-0.591-1.312-1.312-1.312H9.109    c-0.722,0-1.312,0.591-1.312,1.312v18.375C7.797,25.909,8.388,26.5,9.109,26.5z M8.297,6.812C8.297,6.364,8.661,6,9.109,6h13.781    c0.448,0,0.812,0.365,0.812,0.812v18.375c0,0.448-0.365,0.812-0.812,0.812H9.109c-0.448,0-0.812-0.365-0.812-0.812V6.812z"/><rect x="11.083" y="22.34" width="9.834" height="0.5"/><rect x="11.083" y="19.359" width="9.834" height="0.5"/><path d="M13.161,14.175c0.256,0.145,0.556,0.216,0.899,0.216c0.271,0,0.538-0.051,0.802-0.153s0.466-0.221,0.604-0.355v-1.31    h-1.431v0.554h0.76v0.417c-0.1,0.078-0.22,0.145-0.359,0.198c-0.141,0.055-0.279,0.082-0.419,0.082    c-0.281,0-0.508-0.098-0.682-0.292c-0.174-0.195-0.26-0.488-0.26-0.879c0-0.361,0.085-0.635,0.257-0.818    c0.171-0.184,0.401-0.276,0.691-0.276c0.191,0,0.352,0.047,0.479,0.141s0.215,0.221,0.261,0.383l0.659-0.124    c-0.065-0.302-0.213-0.538-0.442-0.71c-0.229-0.171-0.549-0.257-0.957-0.257c-0.313,0-0.576,0.055-0.787,0.164    c-0.276,0.143-0.486,0.347-0.63,0.612c-0.144,0.267-0.216,0.57-0.216,0.913c0,0.315,0.064,0.607,0.193,0.876    C12.713,13.825,12.905,14.031,13.161,14.175z"/><rect x="16.06" y="11.048" width="0.663" height="3.288"/><polygon points="18.024,12.938 19.396,12.938 19.396,12.382 18.024,12.382 18.024,11.603 19.614,11.603 19.614,11.048     17.36,11.048 17.36,14.336 18.024,14.336   "/><path d="M16,32c8.837,0,16-7.163,16-16S24.837,0,16,0S0,7.163,0,16S7.163,32,16,32z M16,0.5c8.547,0,15.5,6.953,15.5,15.5    S24.547,31.5,16,31.5S0.5,24.547,0.5,16S7.453,0.5,16,0.5z"/></g></g></svg>